<mxfile host="app.diagrams.net" modified="2020-07-30T11:32:50.989Z" agent="5.0 (Windows NT 10.0; Win64; x64) AppleWebKit/537.36 (KHTML, like Gecko) Chrome/84.0.4147.89 Safari/537.36" etag="oaWwCopt0h9_nGWJ03jg" version="13.5.5" type="github">
  <diagram id="kgpKYQtTHZ0yAKxKKP6v" name="Page-1">
    <mxGraphModel dx="3102" dy="1082" grid="1" gridSize="10" guides="1" tooltips="1" connect="1" arrows="1" fold="1" page="1" pageScale="1" pageWidth="1100" pageHeight="850" math="0" shadow="0">
      <root>
        <mxCell id="0" />
        <mxCell id="1" parent="0" />
        <mxCell id="3nuBFxr9cyL0pnOWT2aG-1" value="MapSpectacular" style="shape=table;childLayout=tableLayout;rowLines=0;columnLines=0;startSize=40;html=1;whiteSpace=wrap;collapsible=0;recursiveResize=0;expand=0;fontStyle=1" parent="1" vertex="1">
          <mxGeometry x="-520" y="160" width="1150" height="520" as="geometry" />
        </mxCell>
        <mxCell id="3nuBFxr9cyL0pnOWT2aG-3" value="Visual Designer" style="swimlane;horizontal=0;points=[[0,0.5],[1,0.5]];portConstraint=eastwest;startSize=40;html=1;whiteSpace=wrap;collapsible=0;recursiveResize=0;expand=0;" parent="3nuBFxr9cyL0pnOWT2aG-1" vertex="1">
          <mxGeometry y="40" width="1150" height="340" as="geometry" />
        </mxCell>
        <mxCell id="3nuBFxr9cyL0pnOWT2aG-4" value="Import/Load" style="swimlane;connectable=0;startSize=40;html=1;whiteSpace=wrap;collapsible=0;recursiveResize=0;expand=0;" parent="3nuBFxr9cyL0pnOWT2aG-3" vertex="1">
          <mxGeometry x="40" width="360" height="340" as="geometry" />
        </mxCell>
        <mxCell id="3-C-TOEogMpMSnslZLVv-11" value="" style="rounded=0;whiteSpace=wrap;html=1;" vertex="1" parent="3nuBFxr9cyL0pnOWT2aG-4">
          <mxGeometry x="40" y="210.5" width="200" height="100" as="geometry" />
        </mxCell>
        <mxCell id="3-C-TOEogMpMSnslZLVv-13" value="" style="rounded=0;whiteSpace=wrap;html=1;" vertex="1" parent="3nuBFxr9cyL0pnOWT2aG-4">
          <mxGeometry x="40" y="70.5" width="200" height="100" as="geometry" />
        </mxCell>
        <mxCell id="3-C-TOEogMpMSnslZLVv-18" style="edgeStyle=orthogonalEdgeStyle;rounded=0;orthogonalLoop=1;jettySize=auto;html=1;exitX=0.5;exitY=1;exitDx=0;exitDy=0;" edge="1" parent="3nuBFxr9cyL0pnOWT2aG-4">
          <mxGeometry relative="1" as="geometry">
            <mxPoint x="140" y="50" as="sourcePoint" />
            <mxPoint x="140" y="50" as="targetPoint" />
          </mxGeometry>
        </mxCell>
        <mxCell id="3-C-TOEogMpMSnslZLVv-12" value="&lt;h1&gt;Importer&lt;/h1&gt;&lt;p&gt;importiere fremdes Datenmodell&amp;nbsp;&lt;span&gt;und übergebe es dem Interpreter&lt;/span&gt;&lt;/p&gt;" style="text;html=1;strokeColor=none;fillColor=none;spacing=5;spacingTop=-20;whiteSpace=wrap;overflow=hidden;rounded=0;" vertex="1" parent="3nuBFxr9cyL0pnOWT2aG-4">
          <mxGeometry x="50" y="210" width="190" height="100" as="geometry" />
        </mxCell>
        <mxCell id="3-C-TOEogMpMSnslZLVv-24" value="ODER" style="text;html=1;strokeColor=none;fillColor=none;align=center;verticalAlign=middle;whiteSpace=wrap;rounded=0;" vertex="1" parent="3nuBFxr9cyL0pnOWT2aG-4">
          <mxGeometry x="290" y="180" width="40" height="20" as="geometry" />
        </mxCell>
        <mxCell id="3-C-TOEogMpMSnslZLVv-14" value="&lt;h1&gt;Loader&lt;/h1&gt;&lt;p&gt;lade einen vorherigen State&lt;/p&gt;" style="text;html=1;strokeColor=none;fillColor=none;spacing=5;spacingTop=-20;whiteSpace=wrap;overflow=hidden;rounded=0;" vertex="1" parent="3nuBFxr9cyL0pnOWT2aG-4">
          <mxGeometry x="50" y="70" width="190" height="90" as="geometry" />
        </mxCell>
        <mxCell id="3nuBFxr9cyL0pnOWT2aG-8" value="Mapping" style="swimlane;connectable=0;startSize=40;html=1;whiteSpace=wrap;collapsible=0;recursiveResize=0;expand=0;" parent="3nuBFxr9cyL0pnOWT2aG-3" vertex="1">
          <mxGeometry x="400" width="480" height="340" as="geometry" />
        </mxCell>
        <mxCell id="3-C-TOEogMpMSnslZLVv-19" value="" style="rounded=0;whiteSpace=wrap;html=1;" vertex="1" parent="3nuBFxr9cyL0pnOWT2aG-8">
          <mxGeometry x="12" y="198.5" width="200" height="100" as="geometry" />
        </mxCell>
        <mxCell id="3-C-TOEogMpMSnslZLVv-31" style="edgeStyle=orthogonalEdgeStyle;rounded=0;orthogonalLoop=1;jettySize=auto;html=1;exitX=0.25;exitY=0;exitDx=0;exitDy=0;entryX=0;entryY=0.5;entryDx=0;entryDy=0;" edge="1" parent="3nuBFxr9cyL0pnOWT2aG-8" source="3-C-TOEogMpMSnslZLVv-20" target="3-C-TOEogMpMSnslZLVv-29">
          <mxGeometry relative="1" as="geometry" />
        </mxCell>
        <mxCell id="3-C-TOEogMpMSnslZLVv-20" value="&lt;h1&gt;Visualizer&lt;/h1&gt;&lt;p&gt;Darstellung des übergebenen oder geladenen Datenmodells&lt;/p&gt;" style="text;html=1;strokeColor=none;fillColor=none;spacing=5;spacingTop=-20;whiteSpace=wrap;overflow=hidden;rounded=0;" vertex="1" parent="3nuBFxr9cyL0pnOWT2aG-8">
          <mxGeometry x="22" y="198" width="190" height="90" as="geometry" />
        </mxCell>
        <mxCell id="3-C-TOEogMpMSnslZLVv-29" value="" style="rounded=0;whiteSpace=wrap;html=1;" vertex="1" parent="3nuBFxr9cyL0pnOWT2aG-8">
          <mxGeometry x="90" y="68.5" width="200" height="109.5" as="geometry" />
        </mxCell>
        <mxCell id="3-C-TOEogMpMSnslZLVv-34" style="edgeStyle=orthogonalEdgeStyle;rounded=0;orthogonalLoop=1;jettySize=auto;html=1;exitX=1;exitY=0.5;exitDx=0;exitDy=0;entryX=0.5;entryY=0;entryDx=0;entryDy=0;" edge="1" parent="3nuBFxr9cyL0pnOWT2aG-8" source="3-C-TOEogMpMSnslZLVv-30" target="3-C-TOEogMpMSnslZLVv-33">
          <mxGeometry relative="1" as="geometry" />
        </mxCell>
        <mxCell id="3-C-TOEogMpMSnslZLVv-30" value="&lt;h1&gt;Connector&lt;/h1&gt;&lt;p&gt;im Visualizer. Stellt dem Nutzer die Möglichkeit die verschiedenen Klassen und Variablen zu verbinden&lt;/p&gt;" style="text;html=1;strokeColor=none;fillColor=none;spacing=5;spacingTop=-20;whiteSpace=wrap;overflow=hidden;rounded=0;" vertex="1" parent="3nuBFxr9cyL0pnOWT2aG-8">
          <mxGeometry x="100" y="68" width="190" height="110" as="geometry" />
        </mxCell>
        <mxCell id="3-C-TOEogMpMSnslZLVv-32" value="" style="rounded=0;whiteSpace=wrap;html=1;" vertex="1" parent="3nuBFxr9cyL0pnOWT2aG-8">
          <mxGeometry x="230" y="189.5" width="200" height="100" as="geometry" />
        </mxCell>
        <mxCell id="3-C-TOEogMpMSnslZLVv-33" value="&lt;h1&gt;State&lt;/h1&gt;&lt;p&gt;Mapping Repräsentation als Datenmodell&lt;/p&gt;" style="text;html=1;strokeColor=none;fillColor=none;spacing=5;spacingTop=-20;whiteSpace=wrap;overflow=hidden;rounded=0;" vertex="1" parent="3nuBFxr9cyL0pnOWT2aG-8">
          <mxGeometry x="240" y="189" width="190" height="99" as="geometry" />
        </mxCell>
        <mxCell id="3nuBFxr9cyL0pnOWT2aG-11" value="Export" style="swimlane;connectable=0;startSize=40;html=1;whiteSpace=wrap;collapsible=0;recursiveResize=0;expand=0;" parent="3nuBFxr9cyL0pnOWT2aG-3" vertex="1">
          <mxGeometry x="880" width="270" height="340" as="geometry" />
        </mxCell>
        <mxCell id="3-C-TOEogMpMSnslZLVv-39" value="" style="rounded=0;whiteSpace=wrap;html=1;" vertex="1" parent="3nuBFxr9cyL0pnOWT2aG-11">
          <mxGeometry x="30" y="188.5" width="200" height="100" as="geometry" />
        </mxCell>
        <mxCell id="3-C-TOEogMpMSnslZLVv-37" value="" style="rounded=0;whiteSpace=wrap;html=1;" vertex="1" parent="3nuBFxr9cyL0pnOWT2aG-11">
          <mxGeometry x="30" y="63.5" width="200" height="100" as="geometry" />
        </mxCell>
        <mxCell id="3-C-TOEogMpMSnslZLVv-38" value="&lt;h1&gt;Save&lt;/h1&gt;&lt;p&gt;abspeichern des States in einem Visual Designer bekannten Format. (Persistence)/(Loader)&lt;/p&gt;" style="text;html=1;strokeColor=none;fillColor=none;spacing=5;spacingTop=-20;whiteSpace=wrap;overflow=hidden;rounded=0;" vertex="1" parent="3nuBFxr9cyL0pnOWT2aG-11">
          <mxGeometry x="40" y="63" width="190" height="97" as="geometry" />
        </mxCell>
        <mxCell id="3-C-TOEogMpMSnslZLVv-40" value="&lt;h1&gt;Exporter&lt;/h1&gt;&lt;p&gt;Exportiert das Datenmodell zum Generator&lt;/p&gt;" style="text;html=1;strokeColor=none;fillColor=none;spacing=5;spacingTop=-20;whiteSpace=wrap;overflow=hidden;rounded=0;" vertex="1" parent="3nuBFxr9cyL0pnOWT2aG-11">
          <mxGeometry x="40" y="188" width="190" height="97" as="geometry" />
        </mxCell>
        <mxCell id="3-C-TOEogMpMSnslZLVv-36" style="edgeStyle=orthogonalEdgeStyle;rounded=0;orthogonalLoop=1;jettySize=auto;html=1;exitX=1;exitY=0.5;exitDx=0;exitDy=0;entryX=0;entryY=0.5;entryDx=0;entryDy=0;" edge="1" parent="3nuBFxr9cyL0pnOWT2aG-3" source="3-C-TOEogMpMSnslZLVv-14" target="3-C-TOEogMpMSnslZLVv-19">
          <mxGeometry relative="1" as="geometry">
            <Array as="points">
              <mxPoint x="370" y="165" />
              <mxPoint x="370" y="249" />
            </Array>
          </mxGeometry>
        </mxCell>
        <mxCell id="3-C-TOEogMpMSnslZLVv-41" style="edgeStyle=orthogonalEdgeStyle;rounded=0;orthogonalLoop=1;jettySize=auto;html=1;exitX=1;exitY=0.25;exitDx=0;exitDy=0;entryX=0;entryY=0.5;entryDx=0;entryDy=0;" edge="1" parent="3nuBFxr9cyL0pnOWT2aG-3" source="3-C-TOEogMpMSnslZLVv-33" target="3-C-TOEogMpMSnslZLVv-37">
          <mxGeometry relative="1" as="geometry" />
        </mxCell>
        <mxCell id="3-C-TOEogMpMSnslZLVv-42" style="edgeStyle=orthogonalEdgeStyle;rounded=0;orthogonalLoop=1;jettySize=auto;html=1;exitX=1;exitY=0.5;exitDx=0;exitDy=0;entryX=0;entryY=0.5;entryDx=0;entryDy=0;" edge="1" parent="3nuBFxr9cyL0pnOWT2aG-3" source="3-C-TOEogMpMSnslZLVv-33" target="3-C-TOEogMpMSnslZLVv-39">
          <mxGeometry relative="1" as="geometry" />
        </mxCell>
        <mxCell id="3nuBFxr9cyL0pnOWT2aG-15" value="Logik" style="swimlane;horizontal=0;points=[[0,0.5],[1,0.5]];portConstraint=eastwest;startSize=40;html=1;whiteSpace=wrap;collapsible=0;recursiveResize=0;expand=0;" parent="3nuBFxr9cyL0pnOWT2aG-1" vertex="1">
          <mxGeometry y="380" width="1150" height="140" as="geometry" />
        </mxCell>
        <mxCell id="3nuBFxr9cyL0pnOWT2aG-16" value="" style="swimlane;connectable=0;startSize=0;html=1;whiteSpace=wrap;collapsible=0;recursiveResize=0;expand=0;" parent="3nuBFxr9cyL0pnOWT2aG-15" vertex="1">
          <mxGeometry x="40" width="360" height="140" as="geometry" />
        </mxCell>
        <mxCell id="3-C-TOEogMpMSnslZLVv-15" value="" style="rounded=0;whiteSpace=wrap;html=1;" vertex="1" parent="3nuBFxr9cyL0pnOWT2aG-16">
          <mxGeometry x="40" y="21.5" width="200" height="100" as="geometry" />
        </mxCell>
        <mxCell id="3-C-TOEogMpMSnslZLVv-16" value="&lt;h1&gt;Interpreter&lt;/h1&gt;&lt;p&gt;konvertiert ein Nutzer Datenmodell zum einem Visual Designer verständliches&lt;/p&gt;" style="text;html=1;strokeColor=none;fillColor=none;spacing=5;spacingTop=-20;whiteSpace=wrap;overflow=hidden;rounded=0;" vertex="1" parent="3nuBFxr9cyL0pnOWT2aG-16">
          <mxGeometry x="50" y="21" width="190" height="99" as="geometry" />
        </mxCell>
        <mxCell id="3nuBFxr9cyL0pnOWT2aG-18" value="" style="swimlane;connectable=0;startSize=0;html=1;whiteSpace=wrap;collapsible=0;recursiveResize=0;expand=0;" parent="3nuBFxr9cyL0pnOWT2aG-15" vertex="1">
          <mxGeometry x="400" width="480" height="140" as="geometry" />
        </mxCell>
        <mxCell id="3nuBFxr9cyL0pnOWT2aG-23" value="" style="swimlane;connectable=0;startSize=0;html=1;whiteSpace=wrap;collapsible=0;recursiveResize=0;expand=0;" parent="3nuBFxr9cyL0pnOWT2aG-15" vertex="1">
          <mxGeometry x="880" width="270" height="140" as="geometry" />
        </mxCell>
        <mxCell id="3-C-TOEogMpMSnslZLVv-43" value="" style="rounded=0;whiteSpace=wrap;html=1;" vertex="1" parent="3nuBFxr9cyL0pnOWT2aG-23">
          <mxGeometry x="20" y="22" width="200" height="100" as="geometry" />
        </mxCell>
        <mxCell id="3-C-TOEogMpMSnslZLVv-44" value="&lt;h1&gt;Generator&lt;/h1&gt;&lt;p&gt;soll die erwarteten Endprodukte generieren. (Pojo, XSDL usw.)&lt;/p&gt;" style="text;html=1;strokeColor=none;fillColor=none;spacing=5;spacingTop=-20;whiteSpace=wrap;overflow=hidden;rounded=0;" vertex="1" parent="3nuBFxr9cyL0pnOWT2aG-23">
          <mxGeometry x="30" y="21.5" width="190" height="97" as="geometry" />
        </mxCell>
        <mxCell id="3-C-TOEogMpMSnslZLVv-17" style="edgeStyle=orthogonalEdgeStyle;rounded=0;orthogonalLoop=1;jettySize=auto;html=1;exitX=0;exitY=0.5;exitDx=0;exitDy=0;entryX=0;entryY=0.5;entryDx=0;entryDy=0;" edge="1" parent="3nuBFxr9cyL0pnOWT2aG-1" source="3-C-TOEogMpMSnslZLVv-12" target="3-C-TOEogMpMSnslZLVv-15">
          <mxGeometry relative="1" as="geometry" />
        </mxCell>
        <mxCell id="3-C-TOEogMpMSnslZLVv-35" style="edgeStyle=orthogonalEdgeStyle;rounded=0;orthogonalLoop=1;jettySize=auto;html=1;exitX=1;exitY=0.5;exitDx=0;exitDy=0;entryX=0;entryY=0.5;entryDx=0;entryDy=0;" edge="1" parent="3nuBFxr9cyL0pnOWT2aG-1" source="3-C-TOEogMpMSnslZLVv-16" target="3-C-TOEogMpMSnslZLVv-19">
          <mxGeometry relative="1" as="geometry" />
        </mxCell>
        <mxCell id="3-C-TOEogMpMSnslZLVv-45" style="edgeStyle=orthogonalEdgeStyle;rounded=0;orthogonalLoop=1;jettySize=auto;html=1;exitX=0.25;exitY=1;exitDx=0;exitDy=0;entryX=0.5;entryY=0;entryDx=0;entryDy=0;" edge="1" parent="3nuBFxr9cyL0pnOWT2aG-1" source="3-C-TOEogMpMSnslZLVv-40" target="3-C-TOEogMpMSnslZLVv-44">
          <mxGeometry relative="1" as="geometry" />
        </mxCell>
        <mxCell id="3-C-TOEogMpMSnslZLVv-46" value="Nutzer" style="shape=umlActor;verticalLabelPosition=bottom;verticalAlign=top;html=1;outlineConnect=0;" vertex="1" parent="1">
          <mxGeometry x="470" y="730" width="30" height="60" as="geometry" />
        </mxCell>
        <mxCell id="3-C-TOEogMpMSnslZLVv-47" style="edgeStyle=orthogonalEdgeStyle;rounded=0;orthogonalLoop=1;jettySize=auto;html=1;exitX=0.5;exitY=1;exitDx=0;exitDy=0;" edge="1" parent="1" source="3-C-TOEogMpMSnslZLVv-44" target="3-C-TOEogMpMSnslZLVv-46">
          <mxGeometry relative="1" as="geometry" />
        </mxCell>
        <mxCell id="3-C-TOEogMpMSnslZLVv-49" style="edgeStyle=orthogonalEdgeStyle;rounded=0;orthogonalLoop=1;jettySize=auto;html=1;exitX=1;exitY=0.3333333333333333;exitDx=0;exitDy=0;exitPerimeter=0;entryX=-0.003;entryY=0.282;entryDx=0;entryDy=0;entryPerimeter=0;" edge="1" parent="1" source="3-C-TOEogMpMSnslZLVv-48" target="3nuBFxr9cyL0pnOWT2aG-3">
          <mxGeometry relative="1" as="geometry" />
        </mxCell>
        <mxCell id="3-C-TOEogMpMSnslZLVv-48" value="Nutzer" style="shape=umlActor;verticalLabelPosition=bottom;verticalAlign=top;html=1;outlineConnect=0;" vertex="1" parent="1">
          <mxGeometry x="-620" y="276" width="30" height="60" as="geometry" />
        </mxCell>
      </root>
    </mxGraphModel>
  </diagram>
</mxfile>
